<svg xmlns="http://www.w3.org/2000/svg" xmlns:v="https://svgstorm.com"
viewBox = "0 0 512 512"
width="512"
height="512">
<g fill="None" fill-opacity="0.0" stroke="#000000" stroke-opacity="0.00" stroke-width="0.3"><path d="
M 0.00 231.00 
C 9.35 110.66 118.31 5.15 239.00 0.00
L 0.00 0.00
L 0.00 231.00 Z"/>
</g>
<g fill="None" fill-opacity="0.0" stroke="#6B26B2" stroke-opacity="0.99" stroke-width="0.3"><path d="
M 0.00 231.00 
L 0.00 282.00
C 9.21 398.77 112.37 502.28 229.00 512.00
L 283.00 512.00
C 401.70 501.63 505.39 395.13 512.00 276.00
L 512.00 266.00
C 510.36 258.74 510.32 248.19 512.00 241.00
L 512.00 236.00
C 504.81 113.66 395.46 5.51 273.00 0.00
L 264.00 0.00
C 259.41 1.62 251.52 1.70 247.00 0.00
L 239.00 0.00
C 118.31 5.15 9.35 110.66 0.00 231.00
M 291.00 236.00 
C 308.33 241.58 323.21 249.38 337.25 261.75 C 351.28 274.12 359.59 285.52 368.31 302.70 C 377.02 319.87 380.40 342.31 380.00 363.00 C 379.60 383.69 360.27 389.93 343.32 398.32 C 326.37 406.72 308.28 412.42 288.93 415.93 C 269.57 419.44 240.93 418.54 221.78 415.22 C 202.62 411.90 183.67 406.54 166.92 398.08 C 150.17 389.61 131.15 382.39 131.01 361.99 C 130.87 341.60 134.75 319.26 143.31 302.31 C 151.86 285.35 160.30 273.76 174.25 261.25 C 188.19 248.73 203.94 241.98 221.00 236.00
C 180.32 213.50 168.54 159.00 197.75 122.75 C 226.97 86.51 282.55 85.58 312.75 121.25 C 342.95 156.92 331.60 213.30 291.00 236.00 Z"/>
</g>
<g fill="None" fill-opacity="0.0" stroke="#6C26B2" stroke-opacity="0.53" stroke-width="0.3"><path d="
M 264.00 0.00 
L 247.00 0.00
C 251.52 1.70 259.41 1.62 264.00 0.00 Z"/>
</g>
<g fill="None" fill-opacity="0.0" stroke="#000000" stroke-opacity="0.00" stroke-width="0.3"><path d="
M 512.00 236.00 
L 512.00 0.00
L 273.00 0.00
C 395.46 5.51 504.81 113.66 512.00 236.00 Z"/>
</g>
<g fill="None" fill-opacity="0.0" stroke="#000000" stroke-opacity="0.00" stroke-width="0.3"><path d="
M 291.00 236.00 
C 331.60 213.30 342.95 156.92 312.75 121.25 C 282.55 85.58 226.97 86.51 197.75 122.75 C 168.54 159.00 180.32 213.50 221.00 236.00
C 203.94 241.98 188.19 248.73 174.25 261.25 C 160.30 273.76 151.86 285.35 143.31 302.31 C 134.75 319.26 130.87 341.60 131.01 361.99 C 131.15 382.39 150.17 389.61 166.92 398.08 C 183.67 406.54 202.62 411.90 221.78 415.22 C 240.93 418.54 269.57 419.44 288.93 415.93 C 308.28 412.42 326.37 406.72 343.32 398.32 C 360.27 389.93 379.60 383.69 380.00 363.00 C 380.40 342.31 377.02 319.87 368.31 302.70 C 359.59 285.52 351.28 274.12 337.25 261.75 C 323.21 249.38 308.33 241.58 291.00 236.00
M 266.00 109.00 
C 310.15 115.31 331.53 173.30 303.08 207.08 C 274.64 240.87 219.60 236.35 200.69 194.31 C 181.79 152.26 217.44 102.06 266.00 109.00
M 263.00 245.00 
C 275.88 246.25 290.53 250.01 302.23 255.77 C 313.93 261.53 323.26 266.74 332.75 276.25 C 342.25 285.76 347.74 293.69 354.30 305.70 C 360.87 317.70 362.69 329.92 365.78 344.22 C 368.87 358.52 364.62 374.37 350.30 379.30 C 335.99 384.24 329.05 391.15 314.93 394.93 C 300.80 398.70 287.88 402.03 273.00 403.00 C 258.12 403.97 239.31 404.62 225.00 402.00 C 210.69 399.38 198.32 395.72 185.31 390.69 C 172.29 385.67 164.07 381.20 152.25 373.75 C 140.44 366.29 145.94 345.25 147.93 332.93 C 149.92 320.61 155.49 306.69 162.30 296.30 C 169.12 285.92 176.01 278.09 185.75 269.75 C 195.50 261.42 206.29 256.11 218.68 251.68 C 231.06 247.25 248.84 243.63 263.00 245.00 Z"/>
</g>
<g fill="None" fill-opacity="0.0" stroke="#6B27B3" stroke-opacity="0.98" stroke-width="0.3"><path d="
M 266.00 109.00 
C 217.44 102.06 181.79 152.26 200.69 194.31 C 219.60 236.35 274.64 240.87 303.08 207.08 C 331.53 173.30 310.15 115.31 266.00 109.00 Z"/>
</g>
<g fill="None" fill-opacity="0.0" stroke="#6C27B2" stroke-opacity="0.62" stroke-width="0.3"><path d="
M 512.00 266.00 
L 512.00 241.00
C 510.32 248.19 510.36 258.74 512.00 266.00 Z"/>
</g>
<g fill="None" fill-opacity="0.0" stroke="#6B26B2" stroke-opacity="0.99" stroke-width="0.3"><path d="
M 263.00 245.00 
C 248.84 243.63 231.06 247.25 218.68 251.68 C 206.29 256.11 195.50 261.42 185.75 269.75 C 176.01 278.09 169.12 285.92 162.30 296.30 C 155.49 306.69 149.92 320.61 147.93 332.93 C 145.94 345.25 140.44 366.29 152.25 373.75 C 164.07 381.20 172.29 385.67 185.31 390.69 C 198.32 395.72 210.69 399.38 225.00 402.00 C 239.31 404.62 258.12 403.97 273.00 403.00 C 287.88 402.03 300.80 398.70 314.93 394.93 C 329.05 391.15 335.99 384.24 350.30 379.30 C 364.62 374.37 368.87 358.52 365.78 344.22 C 362.69 329.92 360.87 317.70 354.30 305.70 C 347.74 293.69 342.25 285.76 332.75 276.25 C 323.26 266.74 313.93 261.53 302.23 255.77 C 290.53 250.01 275.88 246.25 263.00 245.00 Z"/>
</g>
<g fill="None" fill-opacity="0.0" stroke="#000000" stroke-opacity="0.00" stroke-width="0.3"><path d="
M 283.00 512.00 
L 512.00 512.00
L 512.00 276.00
C 505.39 395.13 401.70 501.63 283.00 512.00 Z"/>
</g>
<g fill="None" fill-opacity="0.0" stroke="#000000" stroke-opacity="0.00" stroke-width="0.3"><path d="
M 0.00 512.00 
L 229.00 512.00
C 112.37 502.28 9.21 398.77 0.00 282.00
L 0.00 512.00 Z"/>
</g>
<g fill="#000000" fill-opacity="0.00" stroke="None">
<path d="
M 0.00 231.00 
C 9.35 110.66 118.31 5.15 239.00 0.00
L 0.00 0.00
L 0.00 231.00 Z"/>
</g>
<g fill="#6B26B2" fill-opacity="0.99" stroke="None">
<path d="
M 0.00 231.00 
L 0.00 282.00
C 9.21 398.77 112.37 502.28 229.00 512.00
L 283.00 512.00
C 401.70 501.63 505.39 395.13 512.00 276.00
L 512.00 266.00
C 510.36 258.74 510.32 248.19 512.00 241.00
L 512.00 236.00
C 504.81 113.66 395.46 5.51 273.00 0.00
L 264.00 0.00
C 259.41 1.62 251.52 1.70 247.00 0.00
L 239.00 0.00
C 118.31 5.15 9.35 110.66 0.00 231.00
M 291.00 236.00 
C 308.33 241.58 323.21 249.38 337.25 261.75 C 351.28 274.12 359.59 285.52 368.31 302.70 C 377.02 319.87 380.40 342.31 380.00 363.00 C 379.60 383.69 360.27 389.93 343.32 398.32 C 326.37 406.72 308.28 412.42 288.93 415.93 C 269.57 419.44 240.93 418.54 221.78 415.22 C 202.62 411.90 183.67 406.54 166.92 398.08 C 150.17 389.61 131.15 382.39 131.01 361.99 C 130.87 341.60 134.75 319.26 143.31 302.31 C 151.86 285.35 160.30 273.76 174.25 261.25 C 188.19 248.73 203.94 241.98 221.00 236.00
C 180.32 213.50 168.54 159.00 197.75 122.75 C 226.97 86.51 282.55 85.58 312.75 121.25 C 342.95 156.92 331.60 213.30 291.00 236.00 Z"/>
</g>
<g fill="#6C26B2" fill-opacity="0.53" stroke="None">
<path d="
M 264.00 0.00 
L 247.00 0.00
C 251.52 1.70 259.41 1.62 264.00 0.00 Z"/>
</g>
<g fill="#000000" fill-opacity="0.00" stroke="None">
<path d="
M 512.00 236.00 
L 512.00 0.00
L 273.00 0.00
C 395.46 5.51 504.81 113.66 512.00 236.00 Z"/>
</g>
<g fill="#000000" fill-opacity="0.00" stroke="None">
<path d="
M 291.00 236.00 
C 331.60 213.30 342.95 156.92 312.75 121.25 C 282.55 85.58 226.97 86.51 197.75 122.75 C 168.54 159.00 180.32 213.50 221.00 236.00
C 203.94 241.98 188.19 248.73 174.25 261.25 C 160.30 273.76 151.86 285.35 143.31 302.31 C 134.75 319.26 130.87 341.60 131.01 361.99 C 131.15 382.39 150.17 389.61 166.92 398.08 C 183.67 406.54 202.62 411.90 221.78 415.22 C 240.93 418.54 269.57 419.44 288.93 415.93 C 308.28 412.42 326.37 406.72 343.32 398.32 C 360.27 389.93 379.60 383.69 380.00 363.00 C 380.40 342.31 377.02 319.87 368.31 302.70 C 359.59 285.52 351.28 274.12 337.25 261.75 C 323.21 249.38 308.33 241.58 291.00 236.00
M 266.00 109.00 
C 310.15 115.31 331.53 173.30 303.08 207.08 C 274.64 240.87 219.60 236.35 200.69 194.31 C 181.79 152.26 217.44 102.06 266.00 109.00
M 263.00 245.00 
C 275.88 246.25 290.53 250.01 302.23 255.77 C 313.93 261.53 323.26 266.74 332.75 276.25 C 342.25 285.76 347.74 293.69 354.30 305.70 C 360.87 317.70 362.69 329.92 365.78 344.22 C 368.87 358.52 364.62 374.37 350.30 379.30 C 335.99 384.24 329.05 391.15 314.93 394.93 C 300.80 398.70 287.88 402.03 273.00 403.00 C 258.12 403.97 239.31 404.62 225.00 402.00 C 210.69 399.38 198.32 395.72 185.31 390.69 C 172.29 385.67 164.07 381.20 152.25 373.75 C 140.44 366.29 145.94 345.25 147.93 332.93 C 149.92 320.61 155.49 306.69 162.30 296.30 C 169.12 285.92 176.01 278.09 185.75 269.75 C 195.50 261.42 206.29 256.11 218.68 251.68 C 231.06 247.25 248.84 243.63 263.00 245.00 Z"/>
</g>
<g fill="#6B27B3" fill-opacity="0.98" stroke="None">
<path d="
M 266.00 109.00 
C 217.44 102.06 181.79 152.26 200.69 194.31 C 219.60 236.35 274.64 240.87 303.08 207.08 C 331.53 173.30 310.15 115.31 266.00 109.00 Z"/>
</g>
<g fill="#6C27B2" fill-opacity="0.62" stroke="None">
<path d="
M 512.00 266.00 
L 512.00 241.00
C 510.32 248.19 510.36 258.74 512.00 266.00 Z"/>
</g>
<g fill="#6B26B2" fill-opacity="0.99" stroke="None">
<path d="
M 263.00 245.00 
C 248.84 243.63 231.06 247.25 218.68 251.68 C 206.29 256.11 195.50 261.42 185.75 269.75 C 176.01 278.09 169.12 285.92 162.30 296.30 C 155.49 306.69 149.92 320.61 147.93 332.93 C 145.94 345.25 140.44 366.29 152.25 373.75 C 164.07 381.20 172.29 385.67 185.31 390.69 C 198.32 395.72 210.69 399.38 225.00 402.00 C 239.31 404.62 258.12 403.97 273.00 403.00 C 287.88 402.03 300.80 398.70 314.93 394.93 C 329.05 391.15 335.99 384.24 350.30 379.30 C 364.62 374.37 368.87 358.52 365.78 344.22 C 362.69 329.92 360.87 317.70 354.30 305.70 C 347.74 293.69 342.25 285.76 332.75 276.25 C 323.26 266.74 313.93 261.53 302.23 255.77 C 290.53 250.01 275.88 246.25 263.00 245.00 Z"/>
</g>
<g fill="#000000" fill-opacity="0.00" stroke="None">
<path d="
M 283.00 512.00 
L 512.00 512.00
L 512.00 276.00
C 505.39 395.13 401.70 501.63 283.00 512.00 Z"/>
</g>
<g fill="#000000" fill-opacity="0.00" stroke="None">
<path d="
M 0.00 512.00 
L 229.00 512.00
C 112.37 502.28 9.21 398.77 0.00 282.00
L 0.00 512.00 Z"/>
</g>
</svg>